<?xml version="1.0" encoding="utf-8"?>
<!-- Generator: Adobe Illustrator 15.1.0, SVG Export Plug-In . SVG Version: 6.00 Build 0)  -->
<!DOCTYPE svg PUBLIC "-//W3C//DTD SVG 1.1//EN" "http://www.w3.org/Graphics/SVG/1.1/DTD/svg11.dtd">
<svg version="1.1" id="Layer_1" xmlns="http://www.w3.org/2000/svg" xmlns:xlink="http://www.w3.org/1999/xlink" x="0px" y="0px"
	 width="900px" height="180px" viewBox="0 0 900 180" enable-background="new 0 0 900 180" xml:space="preserve">
<g>
	<g>
		<defs>
			<rect id="SVGID_1_" x="374.789" y="82.516" width="42.082" height="44.038"/>
		</defs>
		<clipPath id="SVGID_2_">
			<use xlink:href="#SVGID_1_"  overflow="visible"/>
		</clipPath>
		<g clip-path="url(#SVGID_2_)">
			<defs>
				<rect id="SVGID_3_" x="348.484" y="53.801" width="98.3" height="98.3"/>
			</defs>
			<clipPath id="SVGID_4_">
				<use xlink:href="#SVGID_3_"  overflow="visible"/>
			</clipPath>
			<path clip-path="url(#SVGID_4_)" fill="#DB212F" d="M387.005,102.541l-6.755,2.461c0.086,1.082,0.276,2.151,0.539,3.203
				l6.414-2.338C387.001,104.78,386.928,103.658,387.005,102.541"/>
			<path clip-path="url(#SVGID_4_)" fill="#DB212F" d="M416.871,95.074c-0.476-0.978-1.02-1.915-1.646-2.799l-6.757,2.458
				c0.788,0.804,1.44,1.709,1.984,2.669L416.871,95.074z"/>
			<path clip-path="url(#SVGID_4_)" fill="#DB212F" d="M402.003,93.156c1.407,0.65,2.62,1.555,3.652,2.602l6.756-2.456
				c-1.874-2.631-4.419-4.82-7.547-6.282c-9.652-4.503-21.179-0.308-25.679,9.351c-1.456,3.121-2.001,6.442-1.747,9.648l6.754-2.45
				c0.115-1.466,0.473-2.936,1.129-4.343C388.244,92.949,395.729,90.233,402.003,93.156"/>
			<path clip-path="url(#SVGID_4_)" fill="#EA2227" d="M381.209,108.046l-6.42,2.342c0.587,2.334,1.604,4.562,3.015,6.542
				l6.746-2.453C382.819,112.7,381.663,110.449,381.209,108.046"/>
			<path clip-path="url(#SVGID_4_)" fill="#DB212F" d="M409.207,105.502c-0.11,1.466-0.476,2.931-1.131,4.336
				c-2.926,6.277-10.416,8.997-16.691,6.074c-1.405-0.658-2.626-1.545-3.648-2.604l-6.745,2.465c1.87,2.619,4.417,4.819,7.539,6.281
				c9.657,4.499,21.174,0.311,25.686-9.351c1.452-3.129,1.992-6.443,1.733-9.658L409.207,105.502z"/>
			<path clip-path="url(#SVGID_4_)" fill="#EA2227" d="M410.871,97.256l-6.417,2.336c1.189,2.134,1.755,4.593,1.57,7.069
				l6.736-2.454C412.572,101.784,411.928,99.43,410.871,97.256"/>
		</g>
	</g>
</g>
<path fill="#999999" stroke="#FFFFFF" stroke-miterlimit="10" d="M687.326,175.558"/>
<g>
	<path fill="#808080" d="M690.045,136.727l5.06-2.064l-1.137-2.784c0.928-0.622,0.801-0.898,1.204-1.459l1.716,0.95l2.195-4.463
		l-2.39-1.093c0.021-0.448-0.14-1.187-0.025-1.235l3.229-1.316l-1.653-4.047l-3.255,1.326c-0.617-0.926-1.194-1.503-1.796-1.945
		l0.726-2.545l-4.782-1.734l-0.309,2.014c-0.58-0.034-1.224-0.049-1.282-0.185l-0.701-1.723l-5.059,2.065l0.768,1.884
		c-0.922,0.632-1.346,1.153-1.767,1.753l-1.805-0.774l-2.316,4.51l2.437,1.572c-0.013,0.371-0.153,0.479,0.159,1.528l-2.268,0.927
		l1.653,4.049l2.234-0.915c0.635,0.927,1.104,1.15,1.785,1.633l-0.851,2.364l4.731,1.606l0.812-2.421
		c0.543,0.023,1.569-0.212,1.621-0.087L690.045,136.727z M685.372,119.458c3.243-1.324,6.947,0.231,8.27,3.475
		c1.324,3.244-0.233,6.948-3.477,8.272c-3.244,1.323-6.944-0.234-8.271-3.479C680.57,124.482,682.126,120.779,685.372,119.458z"/>
	<path fill="#808080" d="M688.787,127.502c-1.188,0.485-2.54-0.085-3.026-1.273s0.086-2.544,1.271-3.029
		c1.19-0.483,2.545,0.086,3.028,1.272C690.547,125.659,689.978,127.016,688.787,127.502z"/>
</g>
<g>
	<path fill="#808080" d="M272.799,151.752l-3.621-2.002l-1.1,1.991c-0.807-0.251-0.91-0.047-1.434-0.016l-0.253-1.464l-3.675,0.825
		l0.491,1.927c-0.274,0.203-0.635,0.648-0.717,0.603l-2.31-1.278l-1.601,2.899l2.331,1.288c-0.255,0.807-0.321,1.421-0.296,1.985
		l-1.847,0.78l1.252,3.645l1.334-0.776c0.253,0.358,0.553,0.745,0.5,0.844l-0.683,1.233l3.623,2l0.746-1.349
		c0.81,0.245,1.319,0.246,1.872,0.209l0.399,1.433l3.763-0.777l-0.231-2.183c0.222-0.169,0.353-0.138,0.824-0.822l1.623,0.897
		l1.603-2.898l-1.603-0.883c0.245-0.812,0.155-1.198,0.117-1.828l1.8-0.62l-1.303-3.554l-1.814,0.67
		c-0.243-0.33-0.872-0.823-0.821-0.912L272.799,151.752z M264.837,162.712c-2.321-1.284-3.164-4.208-1.88-6.527
		c1.285-2.323,4.207-3.165,6.528-1.88c2.324,1.282,3.163,4.203,1.882,6.528C270.081,163.152,267.162,163.996,264.837,162.712z"/>
	<circle fill="#666666" cx="267.106" cy="158.414" r="1.76"/>
</g>
<g>
	<path fill="#808080" d="M279.393,136.858l-4.027,0.953l0.529,2.218c-0.768,0.355-0.707,0.577-1.074,0.951l-1.173-0.911
		l-2.162,3.083l1.66,1.096c-0.067,0.331-0.034,0.903-0.125,0.927l-2.568,0.608l0.765,3.221l2.592-0.615
		c0.352,0.769,0.717,1.269,1.115,1.669l-0.84,1.817l3.378,1.855l0.464-1.47c0.428,0.094,0.91,0.178,0.935,0.286l0.326,1.371
		l4.026-0.955l-0.355-1.5c0.764-0.363,1.14-0.705,1.525-1.106l1.26,0.791l2.259-3.106l-1.639-1.457
		c0.05-0.278,0.169-0.341,0.058-1.164l1.804-0.429l-0.763-3.222l-1.781,0.424c-0.364-0.765-0.691-0.989-1.143-1.431l0.912-1.668
		l-3.353-1.753l-0.891,1.716c-0.402-0.081-1.199-0.022-1.221-0.124L279.393,136.858z M280.876,150.324
		c-2.582,0.611-5.17-0.985-5.783-3.566s0.983-5.17,3.565-5.782c2.58-0.612,5.169,0.982,5.783,3.565
		C285.053,147.121,283.458,149.709,280.876,150.324z"/>
	<circle fill="#4D4D4D" cx="279.664" cy="145.618" r="1.759"/>
</g>
<g>
	<path fill="#808080" d="M240.295,164.482l3.89,3.016l1.659-2.141c0.901,0.444,1.06,0.222,1.68,0.282l0.029,1.769l4.472-0.299
		l-0.224-2.354c0.356-0.187,0.861-0.645,0.951-0.575l2.48,1.922l2.413-3.109l-2.503-1.943c0.447-0.897,0.637-1.609,0.712-2.278
		l2.311-0.579l-0.802-4.51l-1.71,0.666c-0.231-0.469-0.511-0.977-0.431-1.081l1.027-1.324l-3.889-3.017l-1.122,1.446
		c-0.908-0.434-1.506-0.528-2.165-0.585l-0.207-1.759l-4.563,0.227l-0.129,2.606c-0.293,0.158-0.44,0.096-1.12,0.813l-1.744-1.352
		l-2.412,3.111l1.72,1.332c-0.436,0.91-0.4,1.38-0.472,2.128l-2.228,0.4l0.88,4.413l2.255-0.455
		c0.224,0.433,0.872,1.129,0.797,1.224L240.295,164.482z M251.66,153.061c2.493,1.934,2.947,5.524,1.013,8.014
		c-1.934,2.496-5.522,2.949-8.016,1.015c-2.495-1.933-2.947-5.521-1.013-8.016S249.166,151.126,251.66,153.061z"/>
	<circle fill="#4D4D4D" cx="248.207" cy="157.694" r="2.092"/>
</g>
<polygon opacity="0.8" points="876,107 876,110.307 890.033,105 876,98.764 876,103 425,103 425,107 "/>
<g>
	<path fill="#808080" d="M601.794,122.342l-4.108,0.493l0.272,2.261c-0.803,0.267-0.766,0.492-1.173,0.822l-1.062-1.039
		l-2.498,2.819l1.522,1.275c-0.103,0.324-0.135,0.896-0.227,0.907l-2.621,0.314l0.393,3.287l2.644-0.316
		c0.265,0.801,0.569,1.338,0.921,1.782l-1.04,1.714l3.145,2.224l0.629-1.407c0.415,0.142,0.884,0.28,0.896,0.392l0.169,1.397
		l4.108-0.492l-0.183-1.526c0.8-0.278,1.212-0.573,1.64-0.93l1.164,0.93l2.597-2.831l-1.464-1.636
		c0.082-0.268,0.207-0.316,0.19-1.147l1.841-0.221l-0.394-3.288l-1.815,0.222c-0.276-0.804-0.574-1.062-0.975-1.555l1.098-1.555
		l-3.134-2.121l-1.082,1.604c-0.39-0.126-1.187-0.161-1.198-0.262L601.794,122.342z M601.74,135.889
		c-2.635,0.314-5.025-1.564-5.34-4.196c-0.315-2.637,1.562-5.027,4.198-5.342c2.636-0.318,5.023,1.562,5.341,4.196
		C606.253,133.183,604.376,135.572,601.74,135.889z"/>
	<circle fill="#808080" cx="601.069" cy="131.076" r="1.76"/>
</g>
<g>
	<path fill="#808080" d="M284.76,117.885l-4.916-0.229l-0.126,2.706c-0.992,0.155-0.993,0.428-1.535,0.736l-1.042-1.427
		l-3.484,2.814l1.538,1.798c-0.185,0.359-0.334,1.023-0.447,1.019l-3.135-0.146l-0.182,3.935l3.164,0.146
		c0.151,0.993,0.405,1.685,0.729,2.272l-1.558,1.805l3.254,3.228l1.014-1.529c0.459,0.248,0.98,0.502,0.976,0.635l-0.079,1.674
		l4.917,0.229l0.085-1.83c0.992-0.167,1.537-0.434,2.107-0.768l1.181,1.318l3.603-2.81l-1.396-2.204
		c0.149-0.299,0.304-0.334,0.448-1.311l2.202,0.101l0.183-3.935l-2.173-0.099c-0.166-0.994-0.466-1.358-0.84-2.011l1.593-1.608
		l-3.26-3.104l-1.583,1.668c-0.432-0.225-1.361-0.418-1.355-0.539L284.76,117.885z M282.041,133.767
		c-3.152-0.147-5.589-2.821-5.442-5.972c0.146-3.153,2.819-5.59,5.972-5.442c3.153,0.145,5.588,2.818,5.441,5.972
		C287.866,131.477,285.193,133.912,282.041,133.767z"/>
	<circle fill="#FF0000" cx="282.197" cy="127.989" r="2.093"/>
</g>
<g opacity="0.74">
	<path fill="#808080" d="M584.307,121.237l-6.172-1.416l-0.777,3.399c-1.294-0.032-1.357,0.312-2.113,0.577l-1.447-1.775
		l-5.509,3.029l1.54,2.628c0.096,0.166-0.208,0.951-0.347,0.92l-3.71-1.035l-1.017,4.87l4.026,0.879
		c-0.035,1.29,0.154,2.205,0.432,3.025l-2.368,1.918l3.384,4.827l1.638-1.708c0.524,0.423,1.129,0.864,1.09,1.028l-0.48,2.101
		l6.171,1.413l0.528-2.296c1.294,0.014,2.042-0.195,2.84-0.485l1.196,1.938l5.2-2.732l-1.263-3.112
		c0.261-0.34,0.465-0.351,0.869-1.555l2.763,0.633l1.134-4.937l-2.729-0.623c0.018-1.298-0.279-1.826-0.6-2.737l2.381-1.673
		l-3.415-4.673l-2.384,1.752c-0.497-0.385-1.626-0.844-1.593-0.998L584.307,121.237z M577.227,140.715
		c-3.957-0.905-6.428-4.848-5.519-8.802c0.904-3.96,4.848-6.429,8.804-5.524c3.955,0.907,6.427,4.849,5.52,8.807
		C585.125,139.153,581.186,141.623,577.227,140.715z"/>
	<path fill="#808080" d="M579.348,130.815c1.452,0.334,2.354,1.776,2.023,3.224c-0.331,1.45-1.775,2.353-3.226,2.024
		c-1.447-0.334-2.351-1.778-2.021-3.226C576.458,131.388,577.9,130.484,579.348,130.815z"/>
</g>
<path fill="#5E5E5E" d="M597.604,69.282c-0.481,0-0.87-0.398-0.87-0.891c0-0.491,0.389-0.89,0.87-0.89c0.48,0,0.87,0.398,0.87,0.89
	C598.474,68.884,598.084,69.282,597.604,69.282 M561.866,65.744V46.271h36.7v19.474H561.866 M600.558,43.274
	c-0.71,0-39.53,0-40.02,0s-0.919,0.207-0.919,1s0,25.135,0,25.827c0,0.691,0.919,0.886,0.919,0.886s38.806,0,39.754,0
	c0.951,0,0.521-0.975,0.521-0.975s0-25.172,0-25.648C600.813,43.887,601.27,43.274,600.558,43.274"/>
<rect x="561.866" y="71.736" fill="#FF0000" width="37.449" height="1.498"/>
<path fill="#919191" d="M566.108,91.707v-14.23h20.972v14.23H566.108 M586.57,75.23h-19.952c-1.936,0-3.505,1.569-3.505,3.505
	v12.464c0,1.936,1.569,3.504,3.505,3.504h19.952c1.937,0,3.506-1.568,3.506-3.504V78.735C590.076,76.799,588.507,75.23,586.57,75.23
	"/>
<path fill="#919191" d="M572.101,97.699v-0.748h7.49v0.748H572.101 M595.031,95.453h-36.113c0,0-0.365,3.333,3.303,3.82
	c1.107,0.146,1.558,0.197,1.646,0.197c0.203,0-1.523-0.273-1.523-0.273h29.672C592.015,99.197,595.031,99.197,595.031,95.453"/>
<rect x="566.858" y="89.461" fill="#FF0000" width="18.724" height="1.498"/>
<path fill="#2E2E2E" d="M614.828,69.601c-0.356,0-0.643-0.288-0.643-0.645c0-0.355,0.286-0.644,0.643-0.644
	c0.355,0,0.644,0.288,0.644,0.644C615.472,69.313,615.184,69.601,614.828,69.601 M607.743,67.368V48.689h14.171v18.678H607.743
	 M621.271,45.469h-12.883c-1.423,0-2.576,1.154-2.576,2.576v20.61c0,1.423,1.153,2.576,2.576,2.576h12.883
	c1.422,0,2.575-1.153,2.575-2.576v-20.61C623.846,46.623,622.692,45.469,621.271,45.469"/>
<path fill="#525252" d="M603.625,98.688c-0.413,0-0.749-0.335-0.749-0.748c0-0.414,0.336-0.75,0.749-0.75
	c0.414,0,0.749,0.336,0.749,0.75C604.374,98.353,604.039,98.688,603.625,98.688 M598.315,96.453V76.979h10.485v19.475H598.315
	 M609.801,75.481c-0.804,0-12.042,0-12.042,0s-0.941,0.058-0.941,0.714c0,0.654,0,21.126,0,22.049c0,0.922,1.026,1.204,1.026,1.204
	h11.785c0,0,0.67-0.312,0.67-1.116c0-0.981,0-22.049,0-22.049S610.413,75.481,609.801,75.481"/>
<path fill="#525252" d="M620.604,98.688c-0.413,0-0.748-0.335-0.748-0.748c0-0.414,0.335-0.75,0.748-0.75
	c0.414,0,0.749,0.336,0.749,0.75C621.354,98.353,621.019,98.688,620.604,98.688 M615.295,96.453V76.979h10.486v19.475H615.295
	 M626.779,75.481c-0.803,0-12.041,0-12.041,0s-0.94,0.058-0.94,0.714c0,0.654,0,21.126,0,22.049c0,0.922,1.025,1.204,1.025,1.204
	h11.784c0,0,0.672-0.312,0.672-1.116c0-0.981,0-22.049,0-22.049S627.394,75.481,626.779,75.481"/>
<path fill="#5E5E5E" d="M824.339,95.39c-0.481,0-0.87-0.398-0.87-0.891c0-0.491,0.389-0.89,0.87-0.89c0.48,0,0.87,0.398,0.87,0.89
	C825.209,94.991,824.819,95.39,824.339,95.39 M788.602,91.852V72.378h36.7v19.474H788.602 M827.293,69.382c-0.71,0-39.53,0-40.02,0
	s-0.919,0.207-0.919,1s0,25.135,0,25.826s0.919,0.887,0.919,0.887s38.806,0,39.754,0c0.951,0,0.521-0.976,0.521-0.976
	s0-25.172,0-25.647C827.549,69.995,828.005,69.382,827.293,69.382"/>
<rect x="788.602" y="97.843" fill="#FF0000" width="37.449" height="1.498"/>
<path fill="#5E5E5E" d="M823.339,61.314c-0.481,0-0.87-0.398-0.87-0.891c0-0.491,0.389-0.89,0.87-0.89c0.48,0,0.87,0.398,0.87,0.89
	C824.209,60.916,823.819,61.314,823.339,61.314 M787.602,57.776V38.303h36.7v19.474H787.602 M826.293,35.307
	c-0.71,0-39.53,0-40.02,0s-0.919,0.207-0.919,1s0,25.135,0,25.826s0.919,0.887,0.919,0.887s38.806,0,39.754,0
	c0.951,0,0.521-0.976,0.521-0.976s0-25.172,0-25.647C826.549,35.92,827.005,35.307,826.293,35.307"/>
<rect x="787.602" y="63.768" fill="#FF0000" width="37.449" height="1.498"/>
<path fill="#525252" d="M809.981,26.038c-0.413,0-0.749-0.336-0.749-0.748c0-0.414,0.336-0.75,0.749-0.75
	c0.414,0,0.749,0.336,0.749,0.75C810.73,25.702,810.396,26.038,809.981,26.038 M789.19,30.532V20.046h19.474v10.486H789.19
	 M810.919,18.548c-0.981,0-22.049,0-22.049,0s-1.178,0.26-1.178,0.873c0,0.803,0,12.041,0,12.041s0.433,0.568,1.089,0.568
	c0.654,0,21.127,0,22.049,0s0.83-0.652,0.83-0.652V19.593C811.66,19.593,811.723,18.548,810.919,18.548"/>
<polygon opacity="0.8" points="21,103 21,99.762 10.318,105.068 21,111.305 21,107 366,107 366,103 "/>
<g>
	<rect x="74.505" y="83.652" fill="#FF0000" width="29.174" height="2.237"/>
	<path fill="#A3A3A3" d="M73.268,87.008V65.752h31.324v21.256H73.268 M103.831,62.396H74.029c-2.892,0-5.236,2.344-5.236,5.236
		v18.616c0,2.891,2.344,5.235,5.236,5.235h29.802c2.892,0,5.237-2.344,5.237-5.235V67.632
		C109.067,64.74,106.722,62.396,103.831,62.396"/>
	<path fill="#A3A3A3" d="M82.218,95.957V94.84h11.187v1.117H82.218 M116.466,92.602H62.527c0,0-0.546,4.979,4.932,5.707
		c1.656,0.219,2.328,0.296,2.459,0.296c0.303,0-2.276-0.409-2.276-0.409h44.319C111.961,98.195,116.466,98.195,116.466,92.602"/>
</g>
<g opacity="0.74">
	<path fill="#808080" d="M267.56,126.431l-5.873-2.366l-1.301,3.233c-1.272-0.232-1.39,0.098-2.178,0.241l-1.384-1.891l-6.151,2.22
		l1.107,2.837c0.07,0.179-0.12,0.816-0.251,0.762l-3.385-1.648l-1.709,4.626l3.868,1.488c-0.237,1.269-0.178,2.197-0.033,3.05
		l-2.633,1.522l2.589,5.295l1.887-1.43c0.45,0.5,0.98,1.028,0.917,1.185l-0.803,1.998l5.871,2.366l0.882-2.186
		c1.277,0.217,2.048,0.128,2.882-0.034l0.877,2.102l5.563-1.882l-0.756-3.273c0.308-0.295,0.512-0.272,1.102-1.398l2.629,1.059
		l1.892-4.697l-2.595-1.043c0.221-1.279,0.01-1.848-0.163-2.798l2.614-1.278l-2.639-5.153l-2.63,1.357
		c-0.43-0.458-1.474-1.088-1.417-1.233L267.56,126.431z M257.513,144.557c-3.767-1.515-5.588-5.797-4.07-9.559
		c1.514-3.769,5.795-5.589,9.561-4.075c3.764,1.517,5.587,5.796,4.07,9.564C265.557,144.254,261.279,146.075,257.513,144.557z"/>
	<circle fill="#808080" cx="260.156" cy="137.61" r="2.692"/>
</g>
<path fill="#5E5E5E" d="M778.022,95.465c-0.506,0-0.915-0.389-0.915-0.869s0.409-0.869,0.915-0.869s0.915,0.389,0.915,0.869
	S778.528,95.465,778.022,95.465 M740.221,92.58V73.106h38.947V92.58H740.221 M781.127,70.11c-0.746,0-41.545,0-42.06,0
	s-1.094,0.174-1.094,0.949c0,0.774,0,24.529,0,25.205c0,0.674,1.094,0.811,1.094,0.811s40.784,0,41.78,0
	c1,0,0.567-0.898,0.567-0.898s0-24.566,0-25.03S781.876,70.11,781.127,70.11"/>
<rect x="740.221" y="97.822" fill="#FF0000" width="39.697" height="1.498"/>
<path fill="#A3A3A3" d="M707.517,92.086v-14.23h20.972v14.23H707.517 M727.979,75.608h-19.952c-1.937,0-3.506,1.569-3.506,3.506
	v12.462c0,1.936,1.569,3.506,3.506,3.506h19.952c1.936,0,3.505-1.57,3.505-3.506V79.114
	C731.483,77.177,729.914,75.608,727.979,75.608"/>
<path fill="#A3A3A3" d="M713.508,98.078v-0.75h7.49v0.75H713.508 M736.438,95.83h-36.112c0,0-0.365,3.334,3.303,3.82
	c1.108,0.148,1.559,0.199,1.646,0.199c0.204,0-1.523-0.273-1.523-0.273h29.672C733.422,99.576,736.438,99.576,736.438,95.83"/>
<path fill="#5E5E5E" d="M667.631,69.269c-0.481,0-0.87-0.397-0.87-0.891c0-0.491,0.389-0.89,0.87-0.89c0.48,0,0.87,0.398,0.87,0.89
	C668.501,68.872,668.111,69.269,667.631,69.269 M631.894,65.731V46.257h36.7v19.474H631.894 M670.585,43.261
	c-0.71,0-39.53,0-40.02,0s-0.919,0.206-0.919,1s0,25.135,0,25.827c0,0.691,0.919,0.885,0.919,0.885s38.806,0,39.754,0
	c0.951,0,0.521-0.975,0.521-0.975s0-25.172,0-25.648S671.297,43.261,670.585,43.261"/>
<rect x="631.894" y="71.723" fill="#FF0000" width="37.449" height="1.498"/>
<path fill="#525252" d="M775.746,67.606c-0.413,0-0.749-0.336-0.749-0.75c0-0.412,0.336-0.748,0.749-0.748s0.748,0.336,0.748,0.748
	C776.494,67.27,776.159,67.606,775.746,67.606 M770.436,65.37V45.896h10.485V65.37H770.436 M781.921,44.398
	c-0.803,0-12.041,0-12.041,0s-0.942,0.059-0.942,0.715c0,0.654,0,21.126,0,22.048s1.027,1.205,1.027,1.205h11.784
	c0,0,0.67-0.312,0.67-1.115c0-0.982,0-22.049,0-22.049S782.534,44.398,781.921,44.398"/>
<path fill="#919191" d="M638.136,91.693v-14.23h20.972v14.23H638.136 M658.598,75.217h-19.952c-1.936,0-3.505,1.568-3.505,3.504
	v12.464c0,1.936,1.569,3.504,3.505,3.504h19.952c1.937,0,3.506-1.568,3.506-3.504V78.721
	C662.104,76.786,660.534,75.217,658.598,75.217"/>
<path fill="#919191" d="M644.128,97.686v-0.748h7.49v0.748H644.128 M667.059,95.439h-36.113c0,0-0.365,3.334,3.303,3.82
	c1.107,0.146,1.558,0.197,1.646,0.197c0.203,0-1.523-0.273-1.523-0.273h29.672C664.042,99.184,667.059,99.184,667.059,95.439"/>
<path fill="#525252" d="M725.241,66.769c-0.413,0-0.749-0.336-0.749-0.749s0.336-0.749,0.749-0.749c0.414,0,0.749,0.336,0.749,0.749
	S725.655,66.769,725.241,66.769 M704.517,70.864V60.377h19.474v10.486H704.517 M726.245,58.879c-0.981,0-22.049,0-22.049,0
	s-1.178,0.26-1.178,0.873c0,0.803,0,12.041,0,12.041s0.433,0.568,1.089,0.568c0.654,0,21.127,0,22.049,0s0.83-0.652,0.83-0.652
	V59.924C726.986,59.924,727.049,58.879,726.245,58.879"/>
<path fill="#525252" d="M725.241,50.389c-0.413,0-0.749-0.334-0.749-0.748s0.336-0.749,0.749-0.749c0.414,0,0.749,0.335,0.749,0.749
	S725.655,50.389,725.241,50.389 M704.517,54.883V44.398h19.474v10.485H704.517 M726.245,42.9c-0.981,0-22.049,0-22.049,0
	s-1.178,0.26-1.178,0.872c0,0.804,0,12.042,0,12.042s0.433,0.567,1.089,0.567c0.654,0,21.127,0,22.049,0s0.83-0.652,0.83-0.652
	V43.944C726.986,43.944,727.049,42.9,726.245,42.9"/>
<rect x="708.266" y="89.838" fill="#FF0000" width="18.725" height="1.498"/>
<rect x="638.886" y="89.447" fill="#FF0000" width="18.724" height="1.498"/>
<path fill="#2E2E2E" d="M687.324,70.269c-0.354,0-0.642-0.289-0.642-0.645s0.287-0.643,0.642-0.643c0.357,0,0.645,0.287,0.645,0.643
	S687.682,70.269,687.324,70.269 M680.241,67.897V49.22h14.17v18.677H680.241 M693.767,45.999h-12.882
	c-1.423,0-2.576,1.154-2.576,2.577v20.61c0,1.423,1.153,2.575,2.576,2.575h12.882c1.424,0,2.576-1.152,2.576-2.575v-20.61
	C696.343,47.152,695.19,45.999,693.767,45.999"/>
<path fill="#525252" d="M675.652,98.674c-0.413,0-0.749-0.334-0.749-0.748s0.336-0.75,0.749-0.75c0.414,0,0.749,0.336,0.749,0.75
	S676.066,98.674,675.652,98.674 M670.343,96.439V76.965h10.485v19.474H670.343 M681.828,75.467c-0.804,0-12.042,0-12.042,0
	s-0.941,0.059-0.941,0.715c0,0.654,0,21.126,0,22.048s1.026,1.205,1.026,1.205h11.785c0,0,0.67-0.312,0.67-1.117
	c0-0.98,0-22.048,0-22.048S682.44,75.467,681.828,75.467"/>
<path fill="#525252" d="M690.632,98.674c-0.413,0-0.748-0.334-0.748-0.748s0.335-0.75,0.748-0.75c0.414,0,0.749,0.336,0.749,0.75
	S691.046,98.674,690.632,98.674 M685.322,96.439V76.965h10.486v19.474H685.322 M696.807,75.467c-0.803,0-12.041,0-12.041,0
	s-0.94,0.059-0.94,0.715c0,0.654,0,21.126,0,22.048s1.025,1.205,1.025,1.205h11.784c0,0,0.672-0.312,0.672-1.117
	c0-0.98,0-22.048,0-22.048S697.421,75.467,696.807,75.467"/>
<g>
	<path fill="#808080" d="M653.498,143.328l-4.742,4.194l2.312,2.608c-0.776,1.035-0.534,1.288-0.759,2.057l-2.287,0.143l-0.74,6.244
		l3.031,0.276c0.191,0.018,0.655,0.723,0.548,0.816l-3.001,2.414l3.37,3.662l3.057-2.764c1.028,0.778,1.884,1.157,2.713,1.409
		l0.183,3.042l5.894,0.057l-0.435-2.326c0.648-0.179,1.358-0.416,1.469-0.287l1.428,1.612l4.74-4.196l-1.56-1.765
		c0.766-1.046,1.03-1.775,1.259-2.595l2.271,0.156l0.803-5.819l-3.265-0.784c-0.125-0.41-0.017-0.581-0.759-1.611l2.12-1.879
		l-3.354-3.794l-2.094,1.856c-1.046-0.77-1.649-0.834-2.576-1.104l0.026-2.911l-5.789,0.059l0.038,2.959
		c-0.604,0.179-1.633,0.832-1.738,0.716L653.498,143.328z M665.22,160.418c-3.038,2.691-7.683,2.405-10.368-0.632
		c-2.695-3.04-2.409-7.686,0.628-10.375c3.04-2.69,7.683-2.407,10.375,0.634C668.545,153.086,668.262,157.727,665.22,160.418z"/>
	<path fill="#808080" d="M658.404,152.932c1.115-0.985,2.813-0.88,3.798,0.23c0.986,1.114,0.882,2.814-0.23,3.801
		c-1.113,0.983-2.814,0.878-3.799-0.233C657.188,155.615,657.292,153.917,658.404,152.932z"/>
</g>
<g>
	<path fill="#808080" d="M625.23,130.651l1.862-3.909l-2.155-1.022c0.214-0.858-0.009-0.952-0.072-1.498l1.512-0.359l-1.1-3.782
		l-1.979,0.634c-0.229-0.271-0.716-0.618-0.675-0.708l1.186-2.493l-3.127-1.485l-1.196,2.516c-0.857-0.215-1.504-0.246-2.092-0.181
		l-0.933-1.878l-3.726,1.541l0.896,1.341c-0.357,0.289-0.742,0.626-0.848,0.574l-1.331-0.63l-1.858,3.909l1.456,0.691
		c-0.203,0.86-0.173,1.394-0.095,1.968l-1.473,0.51l1.055,3.878l2.262-0.381c0.194,0.222,0.166,0.36,0.912,0.809l-0.833,1.753
		l3.128,1.487l0.82-1.73c0.861,0.205,1.26,0.085,1.916,0.005l0.763,1.836l3.626-1.585l-0.814-1.852
		c0.329-0.274,0.803-0.963,0.899-0.916L625.23,130.651z M613.277,123.039c1.192-2.503,4.189-3.569,6.695-2.38
		c2.508,1.192,3.573,4.19,2.38,6.695c-1.188,2.507-4.185,3.574-6.694,2.383C613.153,128.545,612.087,125.55,613.277,123.039z"/>
	<path fill="#FF0000" d="M619.571,125.923c-0.438,0.918-1.532,1.309-2.45,0.872s-1.309-1.533-0.874-2.45
		c0.438-0.916,1.535-1.31,2.453-0.873C619.618,123.91,620.007,125.005,619.571,125.923z"/>
</g>
<g>
	<path fill="#808080" d="M295.44,150.572l5.469,0.857l0.471-3.01c1.129-0.051,1.164-0.357,1.808-0.635l0.989,1.726l4.24-2.723
		l-1.5-2.197c0.251-0.377,0.499-1.102,0.624-1.082l3.487,0.545l0.687-4.372l-3.519-0.553c-0.048-1.128-0.247-1.932-0.537-2.632
		l1.961-1.823l-3.24-4.007l-1.322,1.585c-0.482-0.336-1.035-0.684-1.012-0.83l0.292-1.861l-5.468-0.858l-0.318,2.034
		c-1.131,0.065-1.77,0.297-2.45,0.6l-1.159-1.62l-4.371,2.701l1.289,2.637c-0.204,0.315-0.381,0.333-0.66,1.409l-2.452-0.383
		l-0.685,4.373l2.417,0.378c0.066,1.132,0.355,1.574,0.691,2.35l-1.976,1.604l3.264,3.868l1.972-1.672
		c0.457,0.304,1.472,0.637,1.45,0.771L295.44,150.572z M300.427,133.153c3.506,0.551,5.903,3.839,5.352,7.341
		c-0.55,3.508-3.837,5.903-7.343,5.354c-3.507-0.549-5.901-3.837-5.352-7.343C293.635,134.999,296.923,132.603,300.427,133.153z"/>
	<circle fill="#FF0000" cx="299.545" cy="139.592" r="2.353"/>
</g>
<g>
	<path fill="#808080" d="M600.175,139.415l-4.875-0.666l-0.367,2.683c-1.002,0.067-1.027,0.339-1.595,0.598l-0.91-1.515
		l-3.723,2.492l1.371,1.928c-0.216,0.341-0.424,0.99-0.535,0.974l-3.109-0.425l-0.533,3.901l3.137,0.43
		c0.062,1.002,0.254,1.713,0.524,2.328l-1.712,1.658l2.951,3.506l1.146-1.434c0.436,0.289,0.933,0.589,0.916,0.72l-0.229,1.66
		l4.877,0.668l0.248-1.815c1.004-0.077,1.568-0.294,2.167-0.575l1.059,1.419l3.84-2.478l-1.193-2.319
		c0.176-0.284,0.332-0.306,0.563-1.266l2.184,0.298l0.533-3.901l-2.155-0.294c-0.075-1.005-0.343-1.394-0.656-2.078l1.729-1.459
		l-2.969-3.382l-1.726,1.52c-0.41-0.263-1.318-0.538-1.302-0.659L600.175,139.415z M596.049,154.991
		c-3.127-0.429-5.315-3.309-4.888-6.434c0.427-3.129,3.308-5.316,6.435-4.888c3.127,0.426,5.314,3.307,4.886,6.435
		C602.054,153.23,599.175,155.418,596.049,154.991z"/>
	<circle fill="#FF0000" cx="596.721" cy="149.251" r="2.092"/>
</g>
<g>
	<path fill="#808080" d="M621.953,138.752l-5.663-1.274l-0.699,3.119c-1.188-0.024-1.244,0.294-1.94,0.539l-0.915-1.872
		l-4.625,2.558l1.416,2.399c-0.288,0.379-0.597,1.122-0.726,1.092l-3.612-0.811l-1.021,4.531l3.646,0.819
		c-0.027,1.184,0.126,2.039,0.379,2.791l-2.178,1.778l3.115,4.414l1.493-1.565c0.482,0.382,1.038,0.783,1.002,0.935l-0.434,1.93
		l5.665,1.275l0.473-2.106c1.19,0.008,1.875-0.189,2.604-0.459l1.105,1.774l4.759-2.526l-1.166-2.85
		c0.229-0.312,0.42-0.322,0.788-1.428l2.535,0.57l1.023-4.531l-2.506-0.562c0.013-1.19-0.262-1.675-0.562-2.51l2.183-1.541
		l-3.152-4.276l-2.181,1.614c-0.456-0.35-1.495-0.767-1.462-0.906L621.953,138.752z M615.534,156.646
		c-3.633-0.819-5.914-4.427-5.098-8.054c0.821-3.636,4.424-5.916,8.057-5.098c3.634,0.815,5.913,4.421,5.099,8.055
		C622.768,155.18,619.166,157.462,615.534,156.646z"/>
	<circle fill="#808080" cx="616.902" cy="149.964" r="2.469"/>
</g>
<g>
	<path fill="#808080" d="M587.022,155.484l-2.033-5.072l-2.79,1.12c-0.615-0.932-0.894-0.807-1.453-1.214l0.962-1.71l-4.448-2.225
		l-1.109,2.383c-0.448-0.023-1.186,0.132-1.233,0.018l-1.296-3.236l-4.059,1.628l1.307,3.263c-0.93,0.612-1.511,1.185-1.958,1.784
		l-2.54-0.742l-1.763,4.772l2.011,0.319c-0.039,0.579-0.057,1.225-0.192,1.279l-1.729,0.692l2.033,5.07l1.888-0.755
		c0.627,0.926,1.145,1.352,1.744,1.776l-0.789,1.801l4.497,2.346l1.587-2.426c0.371,0.015,0.477,0.156,1.53-0.149l0.911,2.271
		l4.06-1.625l-0.9-2.242c0.929-0.626,1.157-1.097,1.646-1.773l2.357,0.867l1.638-4.724l-2.416-0.827
		c0.027-0.542-0.202-1.57-0.077-1.621L587.022,155.484z M569.724,160.047c-1.304-3.251,0.276-6.945,3.528-8.246
		c3.253-1.304,6.946,0.277,8.25,3.528c1.303,3.254-0.278,6.944-3.533,8.248C574.718,164.882,571.024,163.302,569.724,160.047z"/>
	<path fill="#808080" d="M577.789,156.684c0.478,1.19-0.101,2.54-1.292,3.02c-1.192,0.478-2.545-0.102-3.022-1.292
		c-0.473-1.191,0.104-2.542,1.294-3.021C575.96,154.913,577.311,155.491,577.789,156.684z"/>
</g>
<g opacity="0.74">
	<path fill="#808080" d="M656.115,117.891l-4.167,4.766l2.626,2.295c-0.639,1.124-0.366,1.345-0.49,2.135l-2.24,0.687l0.072,6.536
		l3.044-0.111c0.191-0.008,0.731,0.382,0.638,0.487l-2.673,2.654l3.807,3.138l2.679-3.164c1.12,0.641,2.016,0.891,2.869,1.036
		l0.571,2.986l5.853-0.704l-0.731-2.252c0.622-0.261,1.295-0.587,1.422-0.475l1.624,1.416l4.164-4.767l-1.772-1.552
		c0.624-1.135,0.793-1.893,0.917-2.733l2.271-0.137l0.052-5.873l-3.339-0.36c-0.176-0.391-0.088-0.574-0.957-1.502l1.864-2.134
		l-3.813-3.334l-1.838,2.108c-1.136-0.63-1.742-0.617-2.697-0.767l-0.347-2.889l-5.734,0.798l0.417,2.929
		c-0.573,0.255-1.513,1.034-1.632,0.932L656.115,117.891z M669.925,133.341c-2.668,3.06-7.312,3.37-10.365,0.7
		c-3.06-2.671-3.37-7.313-0.701-10.37c2.67-3.057,7.312-3.369,10.37-0.696C672.286,125.646,672.599,130.285,669.925,133.341z"/>
	<path fill="#808080" d="M662.208,126.789c0.981-1.12,2.678-1.233,3.797-0.255c1.121,0.977,1.234,2.678,0.258,3.798
		c-0.979,1.115-2.68,1.232-3.797,0.253C661.345,129.606,661.231,127.909,662.208,126.789z"/>
</g>
<g>
	<path fill="#808080" d="M525.994,147.419l-3.621-2.002l-1.1,1.992c-0.807-0.251-0.91-0.047-1.434-0.017l-0.253-1.463l-3.675,0.826
		l0.491,1.927c-0.274,0.202-0.636,0.647-0.717,0.601l-2.31-1.276l-1.602,2.897l2.332,1.289c-0.256,0.807-0.322,1.421-0.297,1.984
		l-1.847,0.782l1.252,3.644l1.333-0.776c0.254,0.357,0.554,0.744,0.5,0.844l-0.683,1.232l3.623,2.001l0.745-1.348
		c0.811,0.243,1.32,0.245,1.872,0.207l0.4,1.434l3.762-0.777l-0.229-2.183c0.223-0.17,0.352-0.138,0.823-0.821l1.623,0.896
		l1.602-2.898l-1.602-0.882c0.245-0.813,0.154-1.199,0.116-1.829l1.8-0.621l-1.302-3.553l-1.815,0.67
		c-0.243-0.33-0.871-0.824-0.82-0.913L525.994,147.419z M518.033,158.38c-2.321-1.284-3.163-4.208-1.88-6.528
		c1.285-2.322,4.206-3.165,6.529-1.88c2.323,1.282,3.162,4.204,1.881,6.529C523.277,158.819,520.357,159.664,518.033,158.38z"/>
	<circle fill="#666666" cx="520.302" cy="154.082" r="1.759"/>
</g>
<g>
	<path fill="#808080" d="M493.49,159.15l3.892,3.016l1.658-2.142c0.901,0.445,1.06,0.222,1.68,0.283l0.03,1.769l4.472-0.299
		l-0.224-2.354c0.356-0.187,0.861-0.646,0.95-0.575l2.48,1.921l2.413-3.109l-2.503-1.942c0.446-0.898,0.637-1.608,0.712-2.279
		l2.311-0.578l-0.803-4.511l-1.71,0.667c-0.231-0.47-0.512-0.978-0.432-1.081l1.027-1.324l-3.889-3.017l-1.122,1.446
		c-0.908-0.434-1.506-0.528-2.165-0.585l-0.206-1.76l-4.563,0.227l-0.129,2.607c-0.294,0.158-0.44,0.096-1.12,0.813l-1.742-1.351
		l-2.414,3.11l1.721,1.332c-0.436,0.91-0.4,1.379-0.472,2.127l-2.228,0.401l0.88,4.413l2.255-0.455
		c0.224,0.433,0.872,1.128,0.797,1.224L493.49,159.15z M504.854,147.729c2.494,1.934,2.947,5.523,1.016,8.014
		c-1.936,2.496-5.524,2.948-8.018,1.016c-2.495-1.934-2.946-5.523-1.013-8.017C498.773,146.247,502.362,145.794,504.854,147.729z"/>
	<path fill="#4D4D4D" d="M500.121,154.016c-0.914-0.709-1.078-2.022-0.373-2.934c0.711-0.915,2.023-1.081,2.938-0.373
		c0.911,0.709,1.079,2.022,0.37,2.936C502.348,154.558,501.036,154.723,500.121,154.016z"/>
</g>
<g>
	<path fill="#808080" d="M536.956,113.552l-4.916-0.228l-0.126,2.705c-0.991,0.156-0.993,0.43-1.536,0.737l-1.041-1.427
		l-3.484,2.815l1.537,1.797c-0.185,0.358-0.334,1.024-0.447,1.018l-3.134-0.146l-0.182,3.935l3.164,0.146
		c0.15,0.992,0.404,1.685,0.729,2.272l-1.558,1.805l3.255,3.228l1.013-1.53c0.46,0.248,0.98,0.503,0.976,0.635l-0.078,1.675
		l4.916,0.229l0.085-1.83c0.993-0.166,1.537-0.433,2.108-0.766l1.181,1.317l3.603-2.81l-1.396-2.204
		c0.149-0.299,0.304-0.333,0.448-1.312l2.201,0.102l0.183-3.935l-2.173-0.099c-0.165-0.994-0.466-1.358-0.84-2.011l1.593-1.608
		l-3.26-3.104l-1.582,1.669c-0.433-0.226-1.361-0.419-1.355-0.541L536.956,113.552z M534.236,129.435
		c-3.151-0.147-5.589-2.82-5.442-5.972c0.146-3.154,2.819-5.59,5.973-5.443c3.153,0.146,5.589,2.819,5.441,5.973
		C540.062,127.145,537.389,129.581,534.236,129.435z"/>
	<circle fill="#FF0000" cx="534.393" cy="123.656" r="2.092"/>
</g>
<g opacity="0.74">
	<path fill="#808080" d="M520.756,122.1l-5.873-2.367l-1.3,3.234c-1.273-0.232-1.391,0.097-2.179,0.24l-1.384-1.892l-6.15,2.221
		l1.106,2.836c0.07,0.18-0.119,0.817-0.25,0.763l-3.386-1.649l-1.708,4.628l3.866,1.486c-0.235,1.27-0.178,2.198-0.032,3.051
		l-2.635,1.522l2.59,5.295l1.888-1.431c0.45,0.5,0.98,1.029,0.916,1.186l-0.803,1.998l5.871,2.366l0.882-2.187
		c1.276,0.219,2.048,0.129,2.881-0.033l0.879,2.102l5.562-1.883l-0.756-3.272c0.309-0.295,0.513-0.272,1.101-1.398l2.63,1.059
		l1.893-4.697l-2.596-1.043c0.221-1.279,0.011-1.848-0.163-2.798l2.614-1.279l-2.639-5.152l-2.63,1.357
		c-0.431-0.458-1.475-1.088-1.417-1.234L520.756,122.1z M510.709,140.225c-3.767-1.515-5.588-5.797-4.07-9.56
		c1.515-3.768,5.796-5.589,9.562-4.073c3.764,1.516,5.588,5.795,4.069,9.563C518.754,139.922,514.476,141.742,510.709,140.225z"/>
	<path fill="#808080" d="M514.357,130.781c1.381,0.557,2.046,2.122,1.491,3.502c-0.555,1.378-2.123,2.044-3.503,1.491
		c-1.376-0.557-2.043-2.124-1.488-3.502C511.411,130.893,512.978,130.227,514.357,130.781z"/>
</g>
<g>
	<path fill="#808080" d="M700.453,129.286l-4.293,1.792l0.99,2.363c-0.787,0.535-0.679,0.769-1.019,1.251l-1.469-0.797l-1.835,3.816
		l2.041,0.912c-0.014,0.381,0.127,1.009,0.029,1.052l-2.737,1.144l1.435,3.434l2.766-1.154c0.529,0.788,1.025,1.275,1.541,1.648
		l-0.602,2.17l4.087,1.442l0.248-1.715c0.492,0.025,1.041,0.031,1.09,0.147l0.611,1.461l4.294-1.794l-0.668-1.599
		c0.781-0.544,1.137-0.991,1.49-1.507l1.543,0.648l1.94-3.858l-2.084-1.319c0.003-0.317,0.125-0.409-0.148-1.302l1.925-0.805
		l-1.436-3.436l-1.898,0.795c-0.544-0.782-0.947-0.972-1.529-1.379l0.708-2.018l-4.041-1.334l-0.676,2.066
		c-0.46-0.017-1.334,0.193-1.378,0.086L700.453,129.286z M704.556,143.957c-2.753,1.149-5.917-0.15-7.066-2.902
		c-1.151-2.753,0.149-5.917,2.901-7.066c2.753-1.15,5.915,0.147,7.068,2.901C708.606,139.643,707.308,142.805,704.556,143.957z"/>
	<circle fill="#4D4D4D" cx="702.352" cy="138.957" r="1.977"/>
</g>
<g>
	<path fill="#808080" d="M543.291,147.19l-3.621-2.002l-1.1,1.992c-0.807-0.251-0.91-0.047-1.435-0.015l-0.254-1.464l-3.673,0.825
		l0.491,1.927c-0.274,0.202-0.636,0.647-0.718,0.602l-2.31-1.277l-1.601,2.897l2.332,1.289c-0.256,0.807-0.323,1.421-0.297,1.985
		l-1.847,0.781l1.252,3.644l1.333-0.776c0.254,0.358,0.554,0.744,0.499,0.844l-0.682,1.232l3.623,2.001l0.745-1.348
		c0.81,0.243,1.319,0.245,1.872,0.207l0.398,1.434l3.764-0.777l-0.229-2.183c0.222-0.169,0.352-0.138,0.822-0.821l1.623,0.896
		l1.603-2.898l-1.603-0.882c0.246-0.813,0.155-1.199,0.117-1.829l1.8-0.621l-1.303-3.553l-1.814,0.67
		c-0.243-0.33-0.872-0.824-0.821-0.913L543.291,147.19z M535.33,158.151c-2.321-1.284-3.164-4.208-1.881-6.528
		c1.286-2.322,4.207-3.163,6.529-1.88c2.324,1.282,3.163,4.205,1.882,6.529C540.574,158.592,537.653,159.436,535.33,158.151z"/>
	<circle fill="#666666" cx="537.599" cy="153.854" r="1.758"/>
</g>
<path fill="#525252" d="M548.708,66.395c0-0.413,0.334-0.749,0.748-0.749s0.748,0.336,0.748,0.749c0,0.414-0.334,0.749-0.748,0.749
	S548.708,66.809,548.708,66.395 M544.214,45.67h10.484v19.474h-10.484V45.67 M556.196,67.399c0-0.981,0-22.049,0-22.049
	s-0.26-1.178-0.871-1.178c-0.805,0-12.043,0-12.043,0s-0.566,0.433-0.566,1.089c0,0.654,0,21.127,0,22.049s0.652,0.83,0.652,0.83
	h11.785C555.153,68.14,556.196,68.203,556.196,67.399"/>
<g>
	<path fill="#A3A3A3" d="M548.048,33.454v-14.23h20.972v14.23H548.048 M568.51,16.977h-19.952c-1.937,0-3.506,1.569-3.506,3.505
		v12.463c0,1.937,1.569,3.506,3.506,3.506h19.952c1.936,0,3.505-1.569,3.505-3.506V20.481
		C572.015,18.546,570.445,16.977,568.51,16.977"/>
	<path fill="#A3A3A3" d="M554.039,39.446v-0.749h7.49v0.749H554.039 M576.969,37.198h-36.112c0,0-0.365,3.335,3.303,3.821
		c1.108,0.147,1.559,0.198,1.646,0.198c0.204,0-1.523-0.273-1.523-0.273h29.672C573.953,40.944,576.969,40.944,576.969,37.198"/>
	<rect x="549.797" y="31.207" fill="#FF0000" width="18.725" height="1.498"/>
</g>
<g>
	<path fill="#A3A3A3" d="M587.028,33.409v-14.23H608v14.23H587.028 M607.49,16.932h-19.952c-1.937,0-3.506,1.569-3.506,3.505v12.463
		c0,1.937,1.569,3.506,3.506,3.506h19.952c1.936,0,3.505-1.569,3.505-3.506V20.437C610.995,18.501,609.426,16.932,607.49,16.932"/>
	<path fill="#A3A3A3" d="M593.02,39.401v-0.749h7.49v0.749H593.02 M615.949,37.153h-36.112c0,0-0.365,3.335,3.303,3.821
		c1.108,0.147,1.559,0.198,1.646,0.198c0.204,0-1.523-0.273-1.523-0.273h29.672C612.934,40.899,615.949,40.899,615.949,37.153"/>
	<rect x="587.777" y="31.162" fill="#FF0000" width="18.725" height="1.498"/>
</g>
<path fill="#2E2E2E" d="M623.021,27.946c0-0.381,0.309-0.688,0.688-0.688c0.382,0,0.689,0.307,0.689,0.688s-0.308,0.689-0.689,0.689
	C623.329,28.635,623.021,28.327,623.021,27.946 M625.41,20.37h19.977v15.154H625.41V20.37 M648.83,34.835V21.058
	c0-1.521-1.234-2.755-2.755-2.755h-22.044c-1.521,0-2.755,1.234-2.755,2.755v13.777c0,1.521,1.233,2.755,2.755,2.755h22.044
	C647.596,37.59,648.83,36.357,648.83,34.835"/>
<g>
	<path fill="#A3A3A3" d="M660.984,33.409v-14.23h20.972v14.23H660.984 M681.446,16.932h-19.952c-1.937,0-3.506,1.569-3.506,3.505
		v12.463c0,1.937,1.569,3.506,3.506,3.506h19.952c1.936,0,3.505-1.569,3.505-3.506V20.437
		C684.951,18.501,683.382,16.932,681.446,16.932"/>
	<path fill="#A3A3A3" d="M666.976,39.401v-0.749h7.49v0.749H666.976 M689.905,37.153h-36.112c0,0-0.365,3.335,3.303,3.821
		c1.108,0.147,1.559,0.198,1.646,0.198c0.204,0-1.523-0.273-1.523-0.273h29.672C686.89,40.899,689.905,40.899,689.905,37.153"/>
	<rect x="661.733" y="31.162" fill="#FF0000" width="18.725" height="1.498"/>
</g>
<g>
	<path fill="#A3A3A3" d="M699.769,34.025v-14.23h20.972v14.23H699.769 M720.23,17.548h-19.952c-1.937,0-3.506,1.569-3.506,3.505
		v12.463c0,1.937,1.569,3.506,3.506,3.506h19.952c1.936,0,3.505-1.569,3.505-3.506V21.053
		C723.735,19.117,722.166,17.548,720.23,17.548"/>
	<path fill="#A3A3A3" d="M705.76,40.018v-0.749h7.49v0.749H705.76 M728.689,37.77h-36.112c0,0-0.365,3.335,3.303,3.821
		c1.108,0.147,1.559,0.198,1.646,0.198c0.204,0-1.523-0.273-1.523-0.273h29.672C725.674,41.516,728.689,41.516,728.689,37.77"/>
	<rect x="700.518" y="31.778" fill="#FF0000" width="18.725" height="1.498"/>
</g>
<path fill="#2E2E2E" d="M734.355,28.054c0-0.381,0.309-0.688,0.688-0.688c0.381,0,0.689,0.308,0.689,0.688s-0.309,0.688-0.689,0.688
	C734.664,28.742,734.355,28.435,734.355,28.054 M736.744,20.478h19.977v15.154h-19.977V20.478 M760.165,34.943V21.166
	c0-1.521-1.233-2.755-2.755-2.755h-22.044c-1.521,0-2.756,1.234-2.756,2.755v13.777c0,1.521,1.235,2.754,2.756,2.754h22.044
	C758.932,37.698,760.165,36.464,760.165,34.943"/>
<g>
	<path fill="#A3A3A3" d="M737.891,59.849v-14.23h20.972v14.23H737.891 M758.353,43.371H738.4c-1.937,0-3.506,1.569-3.506,3.505
		v12.463c0,1.937,1.569,3.506,3.506,3.506h19.952c1.936,0,3.505-1.569,3.505-3.506V46.876
		C761.857,44.94,760.288,43.371,758.353,43.371"/>
	<path fill="#A3A3A3" d="M743.882,65.841v-0.749h7.49v0.749H743.882 M766.812,63.593h-36.112c0,0-0.365,3.335,3.303,3.821
		c1.108,0.147,1.559,0.198,1.646,0.198c0.204,0-1.523-0.273-1.523-0.273h29.672C763.796,67.339,766.812,67.339,766.812,63.593"/>
	<rect x="738.64" y="57.602" fill="#FF0000" width="18.725" height="1.498"/>
</g>
<path fill="#525252" d="M775.744,40.936c-0.413,0-0.748-0.334-0.748-0.748s0.335-0.75,0.748-0.75c0.414,0,0.749,0.336,0.749,0.75
	S776.158,40.936,775.744,40.936 M770.435,38.701V19.227h10.486v19.474H770.435 M781.919,17.729c-0.803,0-12.041,0-12.041,0
	s-0.94,0.059-0.94,0.715c0,0.654,0,21.126,0,22.048s1.025,1.205,1.025,1.205h11.784c0,0,0.672-0.312,0.672-1.117
	c0-0.98,0-22.048,0-22.048S782.533,17.729,781.919,17.729"/>
<path fill="#525252" d="M243.838,57.789c-0.502,0-0.911-0.408-0.911-0.911c0-0.502,0.408-0.91,0.911-0.91
	c0.503,0,0.911,0.408,0.911,0.91C244.749,57.381,244.342,57.789,243.838,57.789 M218.647,62.766V50.02h23.671v12.746H218.647
	 M245.059,48.199c-1.193,0-26.801,0-26.801,0s-1.431,0.316-1.431,1.062c0,0.976,0,14.636,0,14.636s0.526,0.691,1.323,0.691
	c0.795,0,25.681,0,26.801,0s1.009-0.793,1.009-0.793V49.469C245.959,49.469,246.036,48.199,245.059,48.199"/>
<path fill="#525252" d="M250.192,56.451c0-0.502,0.407-0.911,0.909-0.911c0.503,0,0.912,0.409,0.912,0.911
	c0,0.503-0.408,0.911-0.912,0.911C250.599,57.361,250.192,56.954,250.192,56.451 M252.908,49.997h23.672v12.746h-23.672V49.997
	 M278.401,63.958c0-0.977,0-14.637,0-14.637s-0.071-1.145-0.869-1.145c-0.795,0-25.679,0-26.801,0c-1.121,0-1.464,1.248-1.464,1.248
	v14.325c0,0,0.379,0.814,1.357,0.814c1.193,0,26.801,0,26.801,0S278.401,64.702,278.401,63.958"/>
<path fill="#5E5E5E" d="M327.186,92.702c-0.57,0-1.029-0.471-1.029-1.054c0-0.581,0.459-1.052,1.029-1.052
	c0.568,0,1.029,0.471,1.029,1.052C328.215,92.231,327.754,92.702,327.186,92.702 M284.908,88.517V65.479h43.417v23.038H284.908
	 M330.681,61.934c-0.84,0-46.765,0-47.344,0s-1.087,0.244-1.087,1.183c0,0.939,0,29.736,0,30.555c0,0.817,1.087,1.046,1.087,1.046
	s45.908,0,47.03,0c1.125,0,0.617-1.152,0.617-1.152s0-29.779,0-30.343S331.523,61.934,330.681,61.934"/>
<rect x="284.908" y="95.605" fill="#FF0000" width="44.304" height="1.772"/>
<path fill="#525252" d="M283.626,49.239c0-0.502,0.407-0.91,0.909-0.91c0.503,0,0.912,0.408,0.912,0.91
	c0,0.504-0.408,0.91-0.912,0.91C284.034,50.149,283.626,49.743,283.626,49.239 M286.342,42.785h23.672V55.53h-23.672V42.785
	 M311.835,56.746c0-0.978,0-14.638,0-14.638s-0.071-1.145-0.869-1.145c-0.795,0-25.679,0-26.801,0c-1.121,0-1.464,1.248-1.464,1.248
	v14.325c0,0,0.379,0.814,1.357,0.814c1.193,0,26.801,0,26.801,0S311.835,57.49,311.835,56.746"/>
<rect x="220.964" y="85.582" fill="#FF0000" width="24.537" height="1.881"/>
<path fill="#A3A3A3" d="M219.923,88.404V70.526h26.345v17.878H219.923 M245.628,67.705h-25.064c-2.433,0-4.404,1.971-4.404,4.403
	v15.657c0,2.432,1.972,4.403,4.404,4.403h25.064c2.432,0,4.404-1.971,4.404-4.403V72.108
	C250.032,69.676,248.06,67.705,245.628,67.705"/>
<path fill="#A3A3A3" d="M227.451,95.932v-0.939h9.409v0.939H227.451 M256.255,93.108H210.89c0,0-0.459,4.189,4.148,4.801
	c1.393,0.183,1.958,0.249,2.068,0.249c0.255,0-1.915-0.345-1.915-0.345h37.275C252.467,97.813,256.255,97.813,256.255,93.108"/>
<path fill="#2E2E2E" d="M269.474,95.905c-0.371,0-0.67-0.3-0.67-0.67s0.299-0.671,0.67-0.671s0.671,0.301,0.671,0.671
	S269.844,95.905,269.474,95.905 M261.233,93.89V74.445h14.75V93.89H261.233 M275.313,71.093h-13.409
	c-1.481,0-2.682,1.201-2.682,2.683v21.456c0,1.48,1.201,2.68,2.682,2.68h13.409c1.481,0,2.682-1.199,2.682-2.68V73.776
	C277.996,72.294,276.795,71.093,275.313,71.093"/>
<path fill="#525252" d="M484.326,66.261c-0.398,0-0.723-0.324-0.723-0.723s0.324-0.723,0.723-0.723c0.4,0,0.723,0.324,0.723,0.723
	S484.727,66.261,484.326,66.261 M464.323,70.212V60.091h18.796v10.121H464.323 M485.296,58.646c-0.948,0-21.281,0-21.281,0
	s-1.137,0.251-1.137,0.843c0,0.775,0,11.622,0,11.622s0.417,0.549,1.051,0.549c0.632,0,20.392,0,21.281,0
	c0.889,0,0.8-0.629,0.8-0.629V59.654C486.01,59.654,486.07,58.646,485.296,58.646"/>
<path fill="#525252" d="M490.959,65.198c0-0.398,0.324-0.723,0.723-0.723c0.399,0,0.724,0.325,0.724,0.723
	c0,0.399-0.324,0.723-0.724,0.723C491.283,65.921,490.959,65.597,490.959,65.198 M493.116,60.073h18.796v10.12h-18.796V60.073
	 M513.357,71.158c0-0.775,0-11.622,0-11.622s-0.056-0.909-0.69-0.909c-0.63,0-20.39,0-21.28,0c-0.889,0-1.161,0.991-1.161,0.991
	v11.374c0,0,0.301,0.647,1.077,0.647c0.946,0,21.281,0,21.281,0S513.357,71.749,513.357,71.158"/>
<path fill="#5E5E5E" d="M552.095,93.982c-0.452,0-0.817-0.373-0.817-0.836c0-0.462,0.365-0.836,0.817-0.836s0.817,0.374,0.817,0.836
	C552.912,93.609,552.547,93.982,552.095,93.982 M518.525,90.659V72.366H553v18.293H518.525 M554.87,69.552
	c-0.667,0-37.133,0-37.593,0c-0.459,0-0.863,0.193-0.863,0.939s0,23.61,0,24.261s0.863,0.831,0.863,0.831s36.452,0,37.343,0
	c0.895,0,0.49-0.915,0.49-0.915s0-23.646,0-24.093C555.11,70.127,555.54,69.552,554.87,69.552"/>
<rect x="518.525" y="96.288" fill="#FF0000" width="35.178" height="1.407"/>
<path fill="#525252" d="M516.684,60.471c0-0.398,0.323-0.722,0.722-0.722c0.4,0,0.725,0.324,0.725,0.722
	c0,0.4-0.324,0.723-0.725,0.723C517.007,61.194,516.684,60.872,516.684,60.471 M518.84,55.347h18.797v10.12H518.84V55.347
	 M539.083,66.432c0-0.776,0-11.623,0-11.623s-0.057-0.909-0.69-0.909c-0.632,0-20.391,0-21.28,0s-1.163,0.991-1.163,0.991v11.375
	c0,0,0.301,0.647,1.077,0.647c0.948,0,21.281,0,21.281,0S539.083,67.023,539.083,66.432"/>
<g>
	<rect x="467.751" y="88.329" fill="#FF0000" width="19.483" height="1.494"/>
	<path fill="#A3A3A3" d="M466.925,90.57V76.375h20.918V90.57H466.925 M487.336,74.134h-19.902c-1.932,0-3.497,1.564-3.497,3.496
		v12.433c0,1.932,1.565,3.496,3.497,3.496h19.902c1.931,0,3.497-1.564,3.497-3.496V77.63
		C490.833,75.699,489.267,74.134,487.336,74.134"/>
	<path fill="#A3A3A3" d="M472.902,96.547v-0.746h7.471v0.746H472.902 M495.774,94.305h-36.022c0,0-0.364,3.327,3.293,3.812
		c1.107,0.145,1.556,0.197,1.644,0.197c0.202,0-1.521-0.273-1.521-0.273h29.598C492.766,98.041,495.774,98.041,495.774,94.305"/>
	<path fill="#2E2E2E" d="M505.476,96.525c-0.293,0-0.531-0.237-0.531-0.531s0.238-0.533,0.531-0.533
		c0.294,0,0.533,0.239,0.533,0.533S505.77,96.525,505.476,96.525 M498.933,94.926v-15.44h11.713v15.44H498.933 M510.112,76.825
		h-10.647c-1.176,0-2.129,0.954-2.129,2.129V95.99c0,1.176,0.953,2.129,2.129,2.129h10.647c1.177,0,2.13-0.953,2.13-2.129V78.954
		C512.242,77.779,511.289,76.825,510.112,76.825"/>
</g>
<path fill="#5E5E5E" d="M511.125,52.148c-0.452,0-0.817-0.373-0.817-0.836c0-0.462,0.365-0.836,0.817-0.836s0.817,0.374,0.817,0.836
	C511.942,51.775,511.577,52.148,511.125,52.148 M477.556,48.825V30.532h34.475v18.293H477.556 M513.9,27.717
	c-0.667,0-37.133,0-37.593,0c-0.459,0-0.863,0.193-0.863,0.939s0,23.61,0,24.261s0.863,0.831,0.863,0.831s36.452,0,37.343,0
	c0.895,0,0.49-0.915,0.49-0.915s0-23.646,0-24.093C514.141,28.292,514.57,27.717,513.9,27.717"/>
<rect x="477.556" y="54.454" fill="#FF0000" width="35.178" height="1.407"/>
<path fill="#2E2E2E" d="M527.516,47.656c-0.356,0-0.643-0.288-0.643-0.645c0-0.355,0.286-0.645,0.643-0.645
	c0.355,0,0.644,0.289,0.644,0.645C528.159,47.368,527.871,47.656,527.516,47.656 M520.431,45.422V26.744h14.171v18.678H520.431
	 M533.958,23.523h-12.883c-1.423,0-2.576,1.154-2.576,2.576v20.611c0,1.422,1.153,2.576,2.576,2.576h12.883
	c1.422,0,2.575-1.154,2.575-2.576V26.1C536.533,24.678,535.38,23.523,533.958,23.523"/>
<g>
	<path fill="#333333" d="M572.729,132.978l-3.693-6.807l-2.951,1.604c-1.002-1.108-1.749-1.486-2.695-2.02l1.083-3.037l-7.398-2.757
		l-1.415,3.922c-0.701,0.045-1.525,0.193-2.043,0.254l-1.869-3.444l-7.227,3.923l1.892,3.488c-0.686,0.765-1.453,1.747-2.039,2.76
		l-3.752-0.881l-1.707,7.671l3.725,0.903c0.043,0.907,0.201,1.838,0.462,2.797l-2.943,1.597l3.693,6.804l3.18-1.727
		c0.788,0.673,1.789,1.453,2.8,2.007l-1.021,2.728l7.382,2.729l1.311-3.756c0.577-0.043,1.129-0.108,1.635-0.189l1.771,3.263
		l7.229-3.925l-1.747-3.217c0.673-0.787,1.698-1.97,2.337-3.116l3.886,0.896l1.715-7.675l-3.896-0.842
		c-0.056-0.85-0.116-1.543-0.391-2.495L572.729,132.978z M547.755,142.55c-2.625-4.837-0.834-10.884,4.001-13.51
		c4.836-2.624,10.885-0.832,13.508,4.004c2.625,4.835,0.832,10.884-4.003,13.509C556.426,149.177,550.381,147.383,547.755,142.55z"
		/>
	<path fill="#FF0000" d="M563.255,134.133c-2.048-3.772-6.768-5.169-10.541-3.122c-3.772,2.048-5.17,6.768-3.12,10.541
		c2.047,3.771,6.764,5.172,10.537,3.124C563.906,142.628,565.305,137.906,563.255,134.133z M558.717,142.065
		c-2.334,1.269-5.251,0.402-6.516-1.929c-1.267-2.332-0.404-5.253,1.93-6.519c2.332-1.266,5.251-0.402,6.519,1.932
		C561.913,137.882,561.049,140.8,558.717,142.065z"/>
</g>
<g>
	<path fill="#333333" d="M653.899,128.719l-4.729-6.129l-2.657,2.052c-1.167-0.936-1.965-1.191-2.983-1.564l0.586-3.172
		l-7.743-1.546l-0.773,4.098c-0.685,0.155-1.474,0.433-1.978,0.575l-2.39-3.103l-6.514,5.025l2.422,3.141
		c-0.554,0.862-1.154,1.958-1.574,3.049l-3.845-0.273l-0.463,7.845l3.821,0.3c0.187,0.89,0.489,1.781,0.9,2.687l-2.651,2.046
		l4.729,6.129l2.865-2.21c0.886,0.537,1.997,1.149,3.083,1.535l-0.575,2.857l7.722,1.519l0.697-3.915
		c0.563-0.137,1.1-0.289,1.585-0.45l2.266,2.941l6.515-5.025l-2.236-2.897c0.539-0.886,1.362-2.215,1.811-3.448l3.978,0.268
		l0.473-7.851l-3.981-0.211c-0.187-0.829-0.358-1.506-0.78-2.401L653.899,128.719z M630.766,142.142
		c-3.359-4.355-2.553-10.611,1.802-13.972c4.358-3.36,10.613-2.554,13.975,1.804c3.359,4.355,2.554,10.613-1.805,13.974
		C640.383,147.309,634.127,146.498,630.766,142.142z"/>
	<path fill="#FF0000" d="M644.189,130.718c-2.977-3.095-7.896-3.191-10.991-0.217c-3.097,2.976-3.194,7.896-0.217,10.991
		c2.974,3.095,7.895,3.192,10.988,0.217C647.065,138.735,647.163,133.812,644.189,130.718z M641.913,139.57
		c-1.912,1.84-4.954,1.78-6.792-0.135c-1.839-1.912-1.782-4.955,0.134-6.795c1.912-1.838,4.954-1.778,6.794,0.133
		C643.888,134.688,643.827,137.73,641.913,139.57z"/>
</g>
<g>
	<path fill="#333333" d="M500.481,126.757l-4.261-6.467l-2.802,1.849c-1.094-1.019-1.869-1.332-2.858-1.782l0.82-3.119l-7.605-2.117
		l-1.077,4.028c-0.694,0.104-1.502,0.322-2.013,0.426l-2.155-3.271l-6.867,4.524l2.181,3.314c-0.617,0.819-1.298,1.864-1.797,2.924
		l-3.813-0.56l-1.047,7.788l3.787,0.584c0.121,0.9,0.357,1.812,0.699,2.746l-2.797,1.842l4.258,6.465l3.021-1.99
		c0.843,0.603,1.907,1.296,2.962,1.761l-0.787,2.805l7.587,2.091l0.986-3.853c0.573-0.093,1.116-0.205,1.613-0.329l2.043,3.101
		l6.869-4.525l-2.014-3.056c0.604-0.843,1.524-2.108,2.062-3.306l3.947,0.564l1.056-7.794l-3.952-0.507
		c-0.127-0.841-0.247-1.528-0.602-2.453L500.481,126.757z M476.413,138.42c-3.027-4.595-1.758-10.773,2.838-13.801
		c4.594-3.026,10.773-1.756,13.799,2.84c3.025,4.595,1.754,10.773-2.84,13.801C485.616,144.286,479.439,143.013,476.413,138.42z"/>
	<path fill="#FF0000" d="M491.142,128.715c-2.363-3.584-7.185-4.573-10.77-2.214c-3.584,2.361-4.576,7.184-2.212,10.77
		c2.36,3.583,7.18,4.577,10.766,2.215C492.511,137.124,493.504,132.301,491.142,128.715z M487.294,137.006
		c-2.218,1.462-5.198,0.848-6.655-1.367c-1.461-2.217-0.851-5.199,1.366-6.659c2.217-1.461,5.199-0.847,6.66,1.37
		C490.123,132.564,489.511,135.546,487.294,137.006z"/>
</g>
<g>
	<path fill="#333333" d="M250.313,129.867l-4.26-6.468l-2.803,1.85c-1.092-1.019-1.869-1.332-2.857-1.783l0.82-3.119l-7.606-2.116
		l-1.077,4.027c-0.695,0.104-1.502,0.322-2.013,0.427l-2.155-3.272l-6.868,4.524l2.182,3.314c-0.618,0.819-1.298,1.864-1.797,2.924
		l-3.814-0.56l-1.047,7.788l3.788,0.584c0.121,0.9,0.358,1.813,0.698,2.747l-2.796,1.842l4.259,6.464l3.021-1.99
		c0.843,0.604,1.907,1.296,2.961,1.762l-0.787,2.803l7.586,2.092l0.986-3.853c0.573-0.093,1.117-0.205,1.614-0.329l2.042,3.101
		l6.869-4.525l-2.013-3.057c0.603-0.842,1.523-2.106,2.062-3.304l3.948,0.564l1.056-7.794l-3.954-0.508
		c-0.126-0.841-0.246-1.528-0.601-2.452L250.313,129.867z M226.245,141.53c-3.027-4.596-1.758-10.774,2.838-13.802
		c4.594-3.025,10.774-1.755,13.799,2.84c3.026,4.594,1.754,10.774-2.84,13.801C235.448,147.395,229.272,146.122,226.245,141.53z"/>
	<path fill="#FF0000" d="M240.973,131.824c-2.362-3.584-7.183-4.573-10.768-2.214c-3.585,2.362-4.577,7.184-2.213,10.769
		c2.36,3.583,7.181,4.577,10.765,2.216C242.343,140.234,243.335,135.41,240.973,131.824z M237.126,140.115
		c-2.218,1.462-5.198,0.848-6.656-1.368c-1.46-2.216-0.851-5.198,1.367-6.659c2.216-1.46,5.199-0.847,6.659,1.371
		C239.955,135.674,239.342,138.656,237.126,140.115z"/>
</g>
<g>
	<path fill="#333333" d="M102.395,131.816l-4.261-6.468l-2.803,1.85c-1.092-1.019-1.869-1.332-2.857-1.783l0.82-3.119l-7.605-2.116
		l-1.077,4.027c-0.694,0.104-1.503,0.322-2.013,0.427l-2.156-3.272l-6.867,4.524l2.182,3.314c-0.618,0.819-1.299,1.864-1.797,2.924
		l-3.814-0.56l-1.047,7.788l3.787,0.584c0.121,0.9,0.358,1.813,0.699,2.747l-2.797,1.842l4.259,6.464l3.021-1.99
		c0.843,0.604,1.907,1.296,2.962,1.762l-0.787,2.803l7.586,2.092l0.986-3.853c0.574-0.093,1.117-0.205,1.614-0.329l2.042,3.101
		l6.869-4.525l-2.012-3.057c0.602-0.842,1.522-2.106,2.061-3.304l3.948,0.564l1.056-7.794l-3.953-0.508
		c-0.127-0.841-0.246-1.528-0.601-2.452L102.395,131.816z M78.325,143.479c-3.027-4.596-1.758-10.774,2.838-13.802
		c4.595-3.025,10.774-1.755,13.8,2.84c3.026,4.594,1.755,10.774-2.84,13.801C87.529,149.344,81.353,148.071,78.325,143.479z"/>
	<path fill="#FF0000" d="M93.054,133.773c-2.361-3.584-7.184-4.573-10.768-2.214c-3.586,2.362-4.577,7.184-2.213,10.769
		c2.359,3.583,7.18,4.577,10.765,2.216C94.425,142.184,95.416,137.359,93.054,133.773z M89.207,142.064
		c-2.218,1.462-5.198,0.848-6.655-1.368c-1.461-2.216-0.852-5.198,1.366-6.659c2.216-1.46,5.198-0.847,6.659,1.371
		C92.036,137.623,91.423,140.605,89.207,142.064z"/>
</g>
</svg>
